<?xml version="1.0" encoding="UTF-8"?>
<svg id="Layer_1" data-name="Layer 1" xmlns="http://www.w3.org/2000/svg" viewBox="0 0 38.24 47.99">
  <defs>
    <style>
      .cls-1 {
        fill: #13a79d;
      }

      .cls-1, .cls-2 {
        fill-rule: evenodd;
      }

      .cls-2 {
        fill: #26282c;
      }
    </style>
  </defs>
  <path class="cls-2" d="m32.07,35.46c-1.93,2.28-4.35,3.79-7.27,4.54-4.9,1.07-9.21-.05-12.94-3.36-3.61-3.65-4.75-7.98-3.44-12.97,1.61-4.5,4.7-7.41,9.28-8.75v-7.38h7.27c-.02,2.44,0,4.88.06,7.32,2.78.75,5.1,2.22,6.97,4.4,2.04-1.56,4.07-3.12,6.11-4.68,0-.1-.04-.19-.11-.28-1.62-1.88-3.5-3.42-5.64-4.63-.06-3.23-.07-6.46-.06-9.69H10.38c.02,3.27,0,6.53-.06,9.8-.73.41-1.42.86-2.09,1.35C3.19,15.03.44,20.16,0,26.54c-.06,7.42,2.9,13.29,8.89,17.59,5.94,3.87,12.33,4.83,19.16,2.86,4.08-1.3,7.47-3.58,10.19-6.86-2.02-1.6-4.08-3.16-6.17-4.68Z"/>
  <path class="cls-1" d="m20.4,18.31c-.69-.5-1.37-1.01-2.04-1.54-.61-.36-1.27-.5-1.98-.41-.84.24-1.46.76-1.84,1.54-.35,1.17-.07,2.15.85,2.95.75.58,1.52,1.13,2.31,1.65,1.09.44,2.07.27,2.95-.52.99-1.29.91-2.52-.25-3.66Zm-1.07,2.34c-.17.2-.38.26-.63.19-.75-.51-1.48-1.04-2.2-1.6-.31-.36-.29-.7.06-1.02.21-.02.41,0,.61.08.65.52,1.31,1.01,1.98,1.49.28.23.34.52.19.85Z"/>
  <path class="cls-1" d="m10.82,20.81c.71.12,1.43.24,2.15.36.03.05.05.1.06.17-.42,2.26-.83,4.53-1.21,6.8-.75-.12-1.51-.25-2.26-.39.39-2.32.81-4.63,1.27-6.94Z"/>
  <path class="cls-1" d="m22.66,21.58c1.44,1.84,2.88,3.69,4.29,5.56-.57.46-1.16.9-1.76,1.32-1.46-1.82-2.89-3.66-4.29-5.53.58-.46,1.17-.91,1.76-1.35Z"/>
  <path class="cls-1" d="m18.72,24.83c-.51-1.39-1.51-2.02-3-1.87-1.23.35-1.91,1.17-2.04,2.45.08.95.19,1.89.3,2.84.3,1.07.98,1.72,2.06,1.95,1.79.11,2.78-.73,2.97-2.51-.08-.96-.18-1.91-.3-2.86Zm-2.7,3.36c-.06-.12-.09-.25-.11-.39-.09-.81-.17-1.61-.25-2.42-.02-.28.09-.48.33-.61.36-.07.63.06.8.39.13.97.2,1.94.22,2.92-.29.38-.63.42-.99.11Z"/>
  <path class="cls-1" d="m21.61,25.71c.05,0,.1.01.14.06.96,2.07,1.93,4.15,2.89,6.22-.02.04-.04.07-.06.11-.65.28-1.29.57-1.93.88-1.01-2.09-2-4.19-2.97-6.3,0-.04.03-.08.06-.11.64-.27,1.26-.56,1.87-.85Z"/>
  <path class="cls-1" d="m31.44,31.77c-.48-.57-.94-1.16-1.38-1.76-.69-.76-1.54-1.07-2.56-.94-1.73.63-2.31,1.82-1.73,3.58.6.84,1.23,1.67,1.87,2.48,1.26,1.04,2.51,1.02,3.74-.06.82-1.09.84-2.19.06-3.3Zm-1.57,2.18c-.22.11-.44.11-.66,0-.62-.75-1.21-1.51-1.79-2.29-.07-.35.05-.61.36-.77.17-.02.34.01.5.08.56.65,1.1,1.32,1.62,2.01.27.33.26.65-.03.96Z"/>
  <path class="cls-1" d="m15.97,32.05c-.51-.66-1.03-1.32-1.54-1.98-.64-.71-1.43-1.04-2.4-.99-1.81.52-2.46,1.7-1.95,3.52.55.79,1.12,1.56,1.71,2.31.23.27.5.5.8.69,1.24.55,2.33.34,3.28-.63.65-.95.69-1.92.11-2.92Zm-2.06,2.04c-.14-.01-.27-.06-.39-.14-.48-.65-.99-1.28-1.51-1.9-.36-.41-.33-.78.08-1.1.19-.02.38.01.55.08.56.65,1.1,1.32,1.62,2.01.34.51.22.86-.36,1.05Z"/>
  <path class="cls-1" d="m18.75,31.61c.66.29,1.31.62,1.93.99-1.07,1.96-2.12,3.92-3.17,5.89-.05.1-.12.17-.22.22-.61-.3-1.21-.62-1.79-.96,1.09-2.04,2.17-4.09,3.25-6.14Z"/>
  <path class="cls-1" d="m23.87,33.97c-.95.26-1.9.53-2.86.8-.23.11-.45.23-.66.39-1.02,1.02-1.16,2.14-.41,3.39.69.85,1.58,1.17,2.67.96.92-.26,1.84-.51,2.75-.77.95-.47,1.45-1.24,1.49-2.31-.27-1.69-1.26-2.51-2.97-2.45Zm1.02,2.75c-.06.06-.13.13-.19.19-.86.25-1.72.49-2.59.72-.61.07-.86-.2-.74-.8.06-.06.13-.13.19-.19.87-.26,1.73-.51,2.59-.74.61-.05.85.23.74.83Z"/>
</svg>