<?xml version="1.0" encoding="UTF-8"?>
<svg id="Layer_1" data-name="Layer 1" xmlns="http://www.w3.org/2000/svg" viewBox="0 0 133.9 168.02">
  <defs>
    <style>
      .cls-1 {
        fill: #13a79d;
      }

      .cls-1, .cls-2 {
        fill-rule: evenodd;
      }

      .cls-2 {
        fill: #26282c;
      }
    </style>
  </defs>
  <path class="cls-2" d="m112.3,124.16c-6.76,7.98-15.24,13.28-25.45,15.9-17.16,3.76-32.26-.16-45.31-11.76-12.63-12.8-16.64-27.93-12.05-45.4,5.62-15.74,16.45-25.96,32.48-30.65v-25.83h25.45c-.06,8.55,0,17.1.19,25.64,9.74,2.63,17.87,7.77,24.39,15.42,7.13-5.46,14.27-10.92,21.4-16.39,0-.34-.14-.66-.39-.96-5.67-6.57-12.26-11.97-19.76-16.19-.19-11.31-.26-22.62-.19-33.93H36.34c.06,11.44,0,22.88-.19,34.32-2.54,1.43-4.98,3-7.33,4.72C11.16,52.62,1.55,70.59,0,92.92c-.23,25.99,10.15,46.52,31.14,61.6,20.8,13.56,43.16,16.9,67.09,10.03,14.27-4.55,26.16-12.55,35.67-24-7.08-5.6-14.28-11.07-21.59-16.39Z"/>
  <path class="cls-1" d="m71.43,64.1c-2.41-1.75-4.79-3.55-7.13-5.4-2.14-1.28-4.46-1.76-6.94-1.45-2.94.85-5.1,2.65-6.46,5.4-1.23,4.08-.24,7.52,2.99,10.31,2.63,2.02,5.33,3.95,8.1,5.78,3.83,1.56,7.26.95,10.31-1.83,3.46-4.53,3.17-8.81-.87-12.82Zm-3.76,8.19c-.59.7-1.33.92-2.22.67-2.62-1.79-5.19-3.65-7.71-5.59-1.08-1.26-1.01-2.45.19-3.57.73-.07,1.44.03,2.12.29,2.26,1.81,4.57,3.54,6.94,5.2.98.82,1.21,1.82.68,2.99Z"/>
  <path class="cls-1" d="m37.89,72.87c2.5.42,5.01.83,7.52,1.25.11.17.18.36.19.58-1.48,7.93-2.89,15.87-4.24,23.81-2.64-.42-5.28-.87-7.9-1.35,1.37-8.12,2.85-16.22,4.43-24.29Z"/>
  <path class="cls-1" d="m79.34,75.57c5.06,6.44,10.07,12.93,15.04,19.47-2,1.61-4.05,3.15-6.17,4.63-5.12-6.37-10.13-12.83-15.04-19.38,2.03-1.63,4.09-3.2,6.17-4.72Z"/>
  <path class="cls-1" d="m65.55,86.95c-1.77-4.88-5.27-7.06-10.51-6.55-4.3,1.24-6.68,4.1-7.13,8.58.3,3.32.65,6.63,1.06,9.93,1.04,3.74,3.45,6.02,7.23,6.84,6.26.37,9.74-2.55,10.41-8.77-.26-3.35-.62-6.69-1.06-10.03Zm-9.45,11.76c-.2-.43-.33-.88-.39-1.35-.32-2.82-.61-5.65-.87-8.48-.06-.97.32-1.67,1.16-2.12,1.28-.24,2.21.21,2.8,1.35.45,3.39.71,6.8.77,10.22-1.03,1.33-2.19,1.46-3.47.39Z"/>
  <path class="cls-1" d="m75.67,90.03c.19-.02.35.05.48.19,3.37,7.26,6.75,14.52,10.12,21.79-.06.13-.13.26-.19.39-2.27.98-4.52,2-6.75,3.08-3.52-7.32-6.99-14.68-10.41-22.07.03-.15.09-.28.19-.39,2.23-.95,4.41-1.95,6.55-2.99Z"/>
  <path class="cls-1" d="m110.09,111.24c-1.68-2-3.29-4.06-4.82-6.17-2.4-2.67-5.39-3.76-8.96-3.28-6.05,2.2-8.07,6.38-6.07,12.53,2.11,2.95,4.3,5.84,6.55,8.68,4.42,3.64,8.79,3.58,13.11-.19,2.86-3.81,2.93-7.67.19-11.57Zm-5.49,7.62c-.78.37-1.55.37-2.31,0-2.16-2.61-4.25-5.28-6.27-8-.26-1.22.16-2.12,1.25-2.7.61-.06,1.19.04,1.74.29,1.97,2.29,3.86,4.64,5.69,7.04.93,1.16.9,2.29-.1,3.37Z"/>
  <path class="cls-1" d="m55.91,112.2c-1.8-2.31-3.6-4.63-5.4-6.94-2.23-2.49-5.02-3.65-8.39-3.47-6.34,1.82-8.62,5.94-6.84,12.34,1.92,2.75,3.91,5.45,5.98,8.1.82.95,1.75,1.75,2.8,2.41,4.35,1.93,8.17,1.19,11.47-2.22,2.29-3.32,2.42-6.73.39-10.22Zm-7.23,7.13c-.49-.05-.94-.21-1.35-.48-1.7-2.27-3.47-4.49-5.3-6.65-1.25-1.43-1.15-2.72.29-3.86.67-.06,1.31.04,1.93.29,1.97,2.29,3.86,4.64,5.69,7.04,1.2,1.79.78,3.01-1.25,3.66Z"/>
  <path class="cls-1" d="m65.65,110.66c2.32,1,4.57,2.16,6.75,3.47-3.73,6.85-7.43,13.73-11.09,20.63-.17.35-.43.61-.77.77-2.14-1.05-4.23-2.18-6.27-3.37,3.82-7.16,7.61-14.32,11.37-21.5Z"/>
  <path class="cls-1" d="m83.58,118.95c-3.32.93-6.66,1.86-10.03,2.8-.82.37-1.59.82-2.31,1.35-3.56,3.56-4.05,7.51-1.45,11.86,2.42,2.99,5.53,4.11,9.35,3.37,3.21-.9,6.43-1.8,9.64-2.7,3.33-1.65,5.07-4.35,5.2-8.1-.93-5.91-4.4-8.77-10.41-8.58Zm3.57,9.64c-.22.22-.45.45-.67.68-3.01.86-6.03,1.7-9.06,2.51-2.15.23-3.02-.7-2.6-2.8.22-.23.45-.45.67-.67,3.03-.9,6.05-1.77,9.06-2.6,2.12-.16,2.99.8,2.6,2.89Z"/>
</svg>