<?xml version="1.0" encoding="utf-8" standalone="no"?>
<!DOCTYPE svg PUBLIC "-//W3C//DTD SVG 1.1//EN"
  "http://www.w3.org/Graphics/SVG/1.1/DTD/svg11.dtd">
<svg xmlns:xlink="http://www.w3.org/1999/xlink" width="720pt" height="360pt" viewBox="0 0 720 360" xmlns="http://www.w3.org/2000/svg" version="1.1">
 <metadata>
  <rdf:RDF xmlns:dc="http://purl.org/dc/elements/1.1/" xmlns:cc="http://creativecommons.org/ns#" xmlns:rdf="http://www.w3.org/1999/02/22-rdf-syntax-ns#">
   <cc:Work>
    <dc:type rdf:resource="http://purl.org/dc/dcmitype/StillImage"/>
    <dc:date>2025-05-11T22:52:54.260910</dc:date>
    <dc:format>image/svg+xml</dc:format>
    <dc:creator>
     <cc:Agent>
      <dc:title>Matplotlib v3.10.0, https://matplotlib.org/</dc:title>
     </cc:Agent>
    </dc:creator>
   </cc:Work>
  </rdf:RDF>
 </metadata>
 <defs>
  <style type="text/css">*{stroke-linejoin: round; stroke-linecap: butt}</style>
 </defs>
 <g id="figure_1">
  <g id="patch_1">
   <path d="M 0 360 
L 720 360 
L 720 0 
L 0 0 
z
" style="fill: #ffffff"/>
  </g>
  <g id="axes_1">
   <g id="patch_2">
    <path d="M 52.512948 220.640389 
L 709.2 220.640389 
L 709.2 26.88 
L 52.512948 26.88 
z
" style="fill: #ffffff"/>
   </g>
   <g id="patch_3">
    <path d="M 59.353439 220.640389 
L 73.034419 220.640389 
L 73.034419 36.106685 
L 59.353439 36.106685 
z
" clip-path="url(#p1179e106df)" style="fill: #90caf9"/>
   </g>
   <g id="patch_4">
    <path d="M 86.715399 220.640389 
L 100.396379 220.640389 
L 100.396379 220.640389 
L 86.715399 220.640389 
z
" clip-path="url(#p1179e106df)" style="fill: #90caf9"/>
   </g>
   <g id="patch_5">
    <path d="M 114.077359 220.640389 
L 127.75834 220.640389 
L 127.75834 220.640389 
L 114.077359 220.640389 
z
" clip-path="url(#p1179e106df)" style="fill: #90caf9"/>
   </g>
   <g id="patch_6">
    <path d="M 141.43932 220.640389 
L 155.1203 220.640389 
L 155.1203 220.640389 
L 141.43932 220.640389 
z
" clip-path="url(#p1179e106df)" style="fill: #90caf9"/>
   </g>
   <g id="patch_7">
    <path d="M 168.80128 220.640389 
L 182.482261 220.640389 
L 182.482261 220.640389 
L 168.80128 220.640389 
z
" clip-path="url(#p1179e106df)" style="fill: #90caf9"/>
   </g>
   <g id="patch_8">
    <path d="M 196.163241 220.640389 
L 209.844221 220.640389 
L 209.844221 220.640389 
L 196.163241 220.640389 
z
" clip-path="url(#p1179e106df)" style="fill: #90caf9"/>
   </g>
   <g id="patch_9">
    <path d="M 223.525201 220.640389 
L 237.206182 220.640389 
L 237.206182 220.640389 
L 223.525201 220.640389 
z
" clip-path="url(#p1179e106df)" style="fill: #90caf9"/>
   </g>
   <g id="patch_10">
    <path d="M 250.887162 220.640389 
L 264.568142 220.640389 
L 264.568142 220.640389 
L 250.887162 220.640389 
z
" clip-path="url(#p1179e106df)" style="fill: #90caf9"/>
   </g>
   <g id="patch_11">
    <path d="M 278.249122 220.640389 
L 291.930103 220.640389 
L 291.930103 220.640389 
L 278.249122 220.640389 
z
" clip-path="url(#p1179e106df)" style="fill: #90caf9"/>
   </g>
   <g id="patch_12">
    <path d="M 305.611083 220.640389 
L 319.292063 220.640389 
L 319.292063 220.640389 
L 305.611083 220.640389 
z
" clip-path="url(#p1179e106df)" style="fill: #90caf9"/>
   </g>
   <g id="patch_13">
    <path d="M 332.973043 220.640389 
L 346.654024 220.640389 
L 346.654024 220.640389 
L 332.973043 220.640389 
z
" clip-path="url(#p1179e106df)" style="fill: #90caf9"/>
   </g>
   <g id="patch_14">
    <path d="M 360.335004 220.640389 
L 374.015984 220.640389 
L 374.015984 220.640389 
L 360.335004 220.640389 
z
" clip-path="url(#p1179e106df)" style="fill: #90caf9"/>
   </g>
   <g id="patch_15">
    <path d="M 387.696964 220.640389 
L 401.377945 220.640389 
L 401.377945 220.640389 
L 387.696964 220.640389 
z
" clip-path="url(#p1179e106df)" style="fill: #90caf9"/>
   </g>
   <g id="patch_16">
    <path d="M 415.058925 220.640389 
L 428.739905 220.640389 
L 428.739905 220.640389 
L 415.058925 220.640389 
z
" clip-path="url(#p1179e106df)" style="fill: #90caf9"/>
   </g>
   <g id="patch_17">
    <path d="M 442.420885 220.640389 
L 456.101866 220.640389 
L 456.101866 220.640389 
L 442.420885 220.640389 
z
" clip-path="url(#p1179e106df)" style="fill: #90caf9"/>
   </g>
   <g id="patch_18">
    <path d="M 469.782846 220.640389 
L 483.463826 220.640389 
L 483.463826 220.640389 
L 469.782846 220.640389 
z
" clip-path="url(#p1179e106df)" style="fill: #90caf9"/>
   </g>
   <g id="patch_19">
    <path d="M 497.144806 220.640389 
L 510.825786 220.640389 
L 510.825786 220.640389 
L 497.144806 220.640389 
z
" clip-path="url(#p1179e106df)" style="fill: #90caf9"/>
   </g>
   <g id="patch_20">
    <path d="M 524.506767 220.640389 
L 538.187747 220.640389 
L 538.187747 220.640389 
L 524.506767 220.640389 
z
" clip-path="url(#p1179e106df)" style="fill: #90caf9"/>
   </g>
   <g id="patch_21">
    <path d="M 551.868727 220.640389 
L 565.549707 220.640389 
L 565.549707 220.640389 
L 551.868727 220.640389 
z
" clip-path="url(#p1179e106df)" style="fill: #90caf9"/>
   </g>
   <g id="patch_22">
    <path d="M 579.230688 220.640389 
L 592.911668 220.640389 
L 592.911668 220.640389 
L 579.230688 220.640389 
z
" clip-path="url(#p1179e106df)" style="fill: #90caf9"/>
   </g>
   <g id="patch_23">
    <path d="M 606.592648 220.640389 
L 620.273628 220.640389 
L 620.273628 220.640389 
L 606.592648 220.640389 
z
" clip-path="url(#p1179e106df)" style="fill: #90caf9"/>
   </g>
   <g id="patch_24">
    <path d="M 633.954609 220.640389 
L 647.635589 220.640389 
L 647.635589 220.640389 
L 633.954609 220.640389 
z
" clip-path="url(#p1179e106df)" style="fill: #90caf9"/>
   </g>
   <g id="patch_25">
    <path d="M 661.316569 220.640389 
L 674.997549 220.640389 
L 674.997549 220.640389 
L 661.316569 220.640389 
z
" clip-path="url(#p1179e106df)" style="fill: #90caf9"/>
   </g>
   <g id="patch_26">
    <path d="M 688.67853 220.640389 
L 702.35951 220.640389 
L 702.35951 220.640389 
L 688.67853 220.640389 
z
" clip-path="url(#p1179e106df)" style="fill: #90caf9"/>
   </g>
   <g id="matplotlib.axis_1">
    <g id="xtick_1">
     <g id="line2d_1">
      <defs>
       <path id="ma531c63532" d="M 0 0 
L 0 3.5 
" style="stroke: #000000; stroke-width: 0.8"/>
      </defs>
      <g>
       <use xlink:href="#ma531c63532" x="66.193929" y="220.640389" style="stroke: #000000; stroke-width: 0.8"/>
      </g>
     </g>
     <g id="text_1">
      <!-- squid_h_max -->
      <g transform="translate(18.460906 279.079093) rotate(-45) scale(0.1 -0.1)">
       <defs>
        <path id="DejaVuSans-73" d="M 2834 3397 
L 2834 2853 
Q 2591 2978 2328 3040 
Q 2066 3103 1784 3103 
Q 1356 3103 1142 2972 
Q 928 2841 928 2578 
Q 928 2378 1081 2264 
Q 1234 2150 1697 2047 
L 1894 2003 
Q 2506 1872 2764 1633 
Q 3022 1394 3022 966 
Q 3022 478 2636 193 
Q 2250 -91 1575 -91 
Q 1294 -91 989 -36 
Q 684 19 347 128 
L 347 722 
Q 666 556 975 473 
Q 1284 391 1588 391 
Q 1994 391 2212 530 
Q 2431 669 2431 922 
Q 2431 1156 2273 1281 
Q 2116 1406 1581 1522 
L 1381 1569 
Q 847 1681 609 1914 
Q 372 2147 372 2553 
Q 372 3047 722 3315 
Q 1072 3584 1716 3584 
Q 2034 3584 2315 3537 
Q 2597 3491 2834 3397 
z
" transform="scale(0.015625)"/>
        <path id="DejaVuSans-71" d="M 947 1747 
Q 947 1113 1208 752 
Q 1469 391 1925 391 
Q 2381 391 2643 752 
Q 2906 1113 2906 1747 
Q 2906 2381 2643 2742 
Q 2381 3103 1925 3103 
Q 1469 3103 1208 2742 
Q 947 2381 947 1747 
z
M 2906 525 
Q 2725 213 2448 61 
Q 2172 -91 1784 -91 
Q 1150 -91 751 415 
Q 353 922 353 1747 
Q 353 2572 751 3078 
Q 1150 3584 1784 3584 
Q 2172 3584 2448 3432 
Q 2725 3281 2906 2969 
L 2906 3500 
L 3481 3500 
L 3481 -1331 
L 2906 -1331 
L 2906 525 
z
" transform="scale(0.015625)"/>
        <path id="DejaVuSans-75" d="M 544 1381 
L 544 3500 
L 1119 3500 
L 1119 1403 
Q 1119 906 1312 657 
Q 1506 409 1894 409 
Q 2359 409 2629 706 
Q 2900 1003 2900 1516 
L 2900 3500 
L 3475 3500 
L 3475 0 
L 2900 0 
L 2900 538 
Q 2691 219 2414 64 
Q 2138 -91 1772 -91 
Q 1169 -91 856 284 
Q 544 659 544 1381 
z
M 1991 3584 
L 1991 3584 
z
" transform="scale(0.015625)"/>
        <path id="DejaVuSans-69" d="M 603 3500 
L 1178 3500 
L 1178 0 
L 603 0 
L 603 3500 
z
M 603 4863 
L 1178 4863 
L 1178 4134 
L 603 4134 
L 603 4863 
z
" transform="scale(0.015625)"/>
        <path id="DejaVuSans-64" d="M 2906 2969 
L 2906 4863 
L 3481 4863 
L 3481 0 
L 2906 0 
L 2906 525 
Q 2725 213 2448 61 
Q 2172 -91 1784 -91 
Q 1150 -91 751 415 
Q 353 922 353 1747 
Q 353 2572 751 3078 
Q 1150 3584 1784 3584 
Q 2172 3584 2448 3432 
Q 2725 3281 2906 2969 
z
M 947 1747 
Q 947 1113 1208 752 
Q 1469 391 1925 391 
Q 2381 391 2643 752 
Q 2906 1113 2906 1747 
Q 2906 2381 2643 2742 
Q 2381 3103 1925 3103 
Q 1469 3103 1208 2742 
Q 947 2381 947 1747 
z
" transform="scale(0.015625)"/>
        <path id="DejaVuSans-5f" d="M 3263 -1063 
L 3263 -1509 
L -63 -1509 
L -63 -1063 
L 3263 -1063 
z
" transform="scale(0.015625)"/>
        <path id="DejaVuSans-68" d="M 3513 2113 
L 3513 0 
L 2938 0 
L 2938 2094 
Q 2938 2591 2744 2837 
Q 2550 3084 2163 3084 
Q 1697 3084 1428 2787 
Q 1159 2491 1159 1978 
L 1159 0 
L 581 0 
L 581 4863 
L 1159 4863 
L 1159 2956 
Q 1366 3272 1645 3428 
Q 1925 3584 2291 3584 
Q 2894 3584 3203 3211 
Q 3513 2838 3513 2113 
z
" transform="scale(0.015625)"/>
        <path id="DejaVuSans-6d" d="M 3328 2828 
Q 3544 3216 3844 3400 
Q 4144 3584 4550 3584 
Q 5097 3584 5394 3201 
Q 5691 2819 5691 2113 
L 5691 0 
L 5113 0 
L 5113 2094 
Q 5113 2597 4934 2840 
Q 4756 3084 4391 3084 
Q 3944 3084 3684 2787 
Q 3425 2491 3425 1978 
L 3425 0 
L 2847 0 
L 2847 2094 
Q 2847 2600 2669 2842 
Q 2491 3084 2119 3084 
Q 1678 3084 1418 2786 
Q 1159 2488 1159 1978 
L 1159 0 
L 581 0 
L 581 3500 
L 1159 3500 
L 1159 2956 
Q 1356 3278 1631 3431 
Q 1906 3584 2284 3584 
Q 2666 3584 2933 3390 
Q 3200 3197 3328 2828 
z
" transform="scale(0.015625)"/>
        <path id="DejaVuSans-61" d="M 2194 1759 
Q 1497 1759 1228 1600 
Q 959 1441 959 1056 
Q 959 750 1161 570 
Q 1363 391 1709 391 
Q 2188 391 2477 730 
Q 2766 1069 2766 1631 
L 2766 1759 
L 2194 1759 
z
M 3341 1997 
L 3341 0 
L 2766 0 
L 2766 531 
Q 2569 213 2275 61 
Q 1981 -91 1556 -91 
Q 1019 -91 701 211 
Q 384 513 384 1019 
Q 384 1609 779 1909 
Q 1175 2209 1959 2209 
L 2766 2209 
L 2766 2266 
Q 2766 2663 2505 2880 
Q 2244 3097 1772 3097 
Q 1472 3097 1187 3025 
Q 903 2953 641 2809 
L 641 3341 
Q 956 3463 1253 3523 
Q 1550 3584 1831 3584 
Q 2591 3584 2966 3190 
Q 3341 2797 3341 1997 
z
" transform="scale(0.015625)"/>
        <path id="DejaVuSans-78" d="M 3513 3500 
L 2247 1797 
L 3578 0 
L 2900 0 
L 1881 1375 
L 863 0 
L 184 0 
L 1544 1831 
L 300 3500 
L 978 3500 
L 1906 2253 
L 2834 3500 
L 3513 3500 
z
" transform="scale(0.015625)"/>
       </defs>
       <use xlink:href="#DejaVuSans-73"/>
       <use xlink:href="#DejaVuSans-71" transform="translate(52.099609 0)"/>
       <use xlink:href="#DejaVuSans-75" transform="translate(115.576172 0)"/>
       <use xlink:href="#DejaVuSans-69" transform="translate(178.955078 0)"/>
       <use xlink:href="#DejaVuSans-64" transform="translate(206.738281 0)"/>
       <use xlink:href="#DejaVuSans-5f" transform="translate(270.214844 0)"/>
       <use xlink:href="#DejaVuSans-68" transform="translate(320.214844 0)"/>
       <use xlink:href="#DejaVuSans-5f" transform="translate(383.59375 0)"/>
       <use xlink:href="#DejaVuSans-6d" transform="translate(433.59375 0)"/>
       <use xlink:href="#DejaVuSans-61" transform="translate(531.005859 0)"/>
       <use xlink:href="#DejaVuSans-78" transform="translate(592.285156 0)"/>
      </g>
     </g>
    </g>
    <g id="xtick_2">
     <g id="line2d_2">
      <g>
       <use xlink:href="#ma531c63532" x="93.555889" y="220.640389" style="stroke: #000000; stroke-width: 0.8"/>
      </g>
     </g>
     <g id="text_2">
      <!-- name -->
      <g transform="translate(72.032222 253.066402) rotate(-45) scale(0.1 -0.1)">
       <defs>
        <path id="DejaVuSans-6e" d="M 3513 2113 
L 3513 0 
L 2938 0 
L 2938 2094 
Q 2938 2591 2744 2837 
Q 2550 3084 2163 3084 
Q 1697 3084 1428 2787 
Q 1159 2491 1159 1978 
L 1159 0 
L 581 0 
L 581 3500 
L 1159 3500 
L 1159 2956 
Q 1366 3272 1645 3428 
Q 1925 3584 2291 3584 
Q 2894 3584 3203 3211 
Q 3513 2838 3513 2113 
z
" transform="scale(0.015625)"/>
        <path id="DejaVuSans-65" d="M 3597 1894 
L 3597 1613 
L 953 1613 
Q 991 1019 1311 708 
Q 1631 397 2203 397 
Q 2534 397 2845 478 
Q 3156 559 3463 722 
L 3463 178 
Q 3153 47 2828 -22 
Q 2503 -91 2169 -91 
Q 1331 -91 842 396 
Q 353 884 353 1716 
Q 353 2575 817 3079 
Q 1281 3584 2069 3584 
Q 2775 3584 3186 3129 
Q 3597 2675 3597 1894 
z
M 3022 2063 
Q 3016 2534 2758 2815 
Q 2500 3097 2075 3097 
Q 1594 3097 1305 2825 
Q 1016 2553 972 2059 
L 3022 2063 
z
" transform="scale(0.015625)"/>
       </defs>
       <use xlink:href="#DejaVuSans-6e"/>
       <use xlink:href="#DejaVuSans-61" transform="translate(63.378906 0)"/>
       <use xlink:href="#DejaVuSans-6d" transform="translate(124.658203 0)"/>
       <use xlink:href="#DejaVuSans-65" transform="translate(222.070312 0)"/>
      </g>
     </g>
    </g>
    <g id="xtick_3">
     <g id="line2d_3">
      <g>
       <use xlink:href="#ma531c63532" x="120.91785" y="220.640389" style="stroke: #000000; stroke-width: 0.8"/>
      </g>
     </g>
     <g id="text_3">
      <!-- np_hydro_size -->
      <g transform="translate(69.269224 282.994697) rotate(-45) scale(0.1 -0.1)">
       <defs>
        <path id="DejaVuSans-70" d="M 1159 525 
L 1159 -1331 
L 581 -1331 
L 581 3500 
L 1159 3500 
L 1159 2969 
Q 1341 3281 1617 3432 
Q 1894 3584 2278 3584 
Q 2916 3584 3314 3078 
Q 3713 2572 3713 1747 
Q 3713 922 3314 415 
Q 2916 -91 2278 -91 
Q 1894 -91 1617 61 
Q 1341 213 1159 525 
z
M 3116 1747 
Q 3116 2381 2855 2742 
Q 2594 3103 2138 3103 
Q 1681 3103 1420 2742 
Q 1159 2381 1159 1747 
Q 1159 1113 1420 752 
Q 1681 391 2138 391 
Q 2594 391 2855 752 
Q 3116 1113 3116 1747 
z
" transform="scale(0.015625)"/>
        <path id="DejaVuSans-79" d="M 2059 -325 
Q 1816 -950 1584 -1140 
Q 1353 -1331 966 -1331 
L 506 -1331 
L 506 -850 
L 844 -850 
Q 1081 -850 1212 -737 
Q 1344 -625 1503 -206 
L 1606 56 
L 191 3500 
L 800 3500 
L 1894 763 
L 2988 3500 
L 3597 3500 
L 2059 -325 
z
" transform="scale(0.015625)"/>
        <path id="DejaVuSans-72" d="M 2631 2963 
Q 2534 3019 2420 3045 
Q 2306 3072 2169 3072 
Q 1681 3072 1420 2755 
Q 1159 2438 1159 1844 
L 1159 0 
L 581 0 
L 581 3500 
L 1159 3500 
L 1159 2956 
Q 1341 3275 1631 3429 
Q 1922 3584 2338 3584 
Q 2397 3584 2469 3576 
Q 2541 3569 2628 3553 
L 2631 2963 
z
" transform="scale(0.015625)"/>
        <path id="DejaVuSans-6f" d="M 1959 3097 
Q 1497 3097 1228 2736 
Q 959 2375 959 1747 
Q 959 1119 1226 758 
Q 1494 397 1959 397 
Q 2419 397 2687 759 
Q 2956 1122 2956 1747 
Q 2956 2369 2687 2733 
Q 2419 3097 1959 3097 
z
M 1959 3584 
Q 2709 3584 3137 3096 
Q 3566 2609 3566 1747 
Q 3566 888 3137 398 
Q 2709 -91 1959 -91 
Q 1206 -91 779 398 
Q 353 888 353 1747 
Q 353 2609 779 3096 
Q 1206 3584 1959 3584 
z
" transform="scale(0.015625)"/>
        <path id="DejaVuSans-7a" d="M 353 3500 
L 3084 3500 
L 3084 2975 
L 922 459 
L 3084 459 
L 3084 0 
L 275 0 
L 275 525 
L 2438 3041 
L 353 3041 
L 353 3500 
z
" transform="scale(0.015625)"/>
       </defs>
       <use xlink:href="#DejaVuSans-6e"/>
       <use xlink:href="#DejaVuSans-70" transform="translate(63.378906 0)"/>
       <use xlink:href="#DejaVuSans-5f" transform="translate(126.855469 0)"/>
       <use xlink:href="#DejaVuSans-68" transform="translate(176.855469 0)"/>
       <use xlink:href="#DejaVuSans-79" transform="translate(240.234375 0)"/>
       <use xlink:href="#DejaVuSans-64" transform="translate(299.414062 0)"/>
       <use xlink:href="#DejaVuSans-72" transform="translate(362.890625 0)"/>
       <use xlink:href="#DejaVuSans-6f" transform="translate(401.753906 0)"/>
       <use xlink:href="#DejaVuSans-5f" transform="translate(462.935547 0)"/>
       <use xlink:href="#DejaVuSans-73" transform="translate(512.935547 0)"/>
       <use xlink:href="#DejaVuSans-69" transform="translate(565.035156 0)"/>
       <use xlink:href="#DejaVuSans-7a" transform="translate(592.818359 0)"/>
       <use xlink:href="#DejaVuSans-65" transform="translate(645.308594 0)"/>
      </g>
     </g>
    </g>
    <g id="xtick_4">
     <g id="line2d_4">
      <g>
       <use xlink:href="#ma531c63532" x="148.27981" y="220.640389" style="stroke: #000000; stroke-width: 0.8"/>
      </g>
     </g>
     <g id="text_4">
      <!-- np_shell_2 -->
      <g transform="translate(109.627586 269.998295) rotate(-45) scale(0.1 -0.1)">
       <defs>
        <path id="DejaVuSans-6c" d="M 603 4863 
L 1178 4863 
L 1178 0 
L 603 0 
L 603 4863 
z
" transform="scale(0.015625)"/>
        <path id="DejaVuSans-32" d="M 1228 531 
L 3431 531 
L 3431 0 
L 469 0 
L 469 531 
Q 828 903 1448 1529 
Q 2069 2156 2228 2338 
Q 2531 2678 2651 2914 
Q 2772 3150 2772 3378 
Q 2772 3750 2511 3984 
Q 2250 4219 1831 4219 
Q 1534 4219 1204 4116 
Q 875 4013 500 3803 
L 500 4441 
Q 881 4594 1212 4672 
Q 1544 4750 1819 4750 
Q 2544 4750 2975 4387 
Q 3406 4025 3406 3419 
Q 3406 3131 3298 2873 
Q 3191 2616 2906 2266 
Q 2828 2175 2409 1742 
Q 1991 1309 1228 531 
z
" transform="scale(0.015625)"/>
       </defs>
       <use xlink:href="#DejaVuSans-6e"/>
       <use xlink:href="#DejaVuSans-70" transform="translate(63.378906 0)"/>
       <use xlink:href="#DejaVuSans-5f" transform="translate(126.855469 0)"/>
       <use xlink:href="#DejaVuSans-73" transform="translate(176.855469 0)"/>
       <use xlink:href="#DejaVuSans-68" transform="translate(228.955078 0)"/>
       <use xlink:href="#DejaVuSans-65" transform="translate(292.333984 0)"/>
       <use xlink:href="#DejaVuSans-6c" transform="translate(353.857422 0)"/>
       <use xlink:href="#DejaVuSans-6c" transform="translate(381.640625 0)"/>
       <use xlink:href="#DejaVuSans-5f" transform="translate(409.423828 0)"/>
       <use xlink:href="#DejaVuSans-32" transform="translate(459.423828 0)"/>
      </g>
     </g>
    </g>
    <g id="xtick_5">
     <g id="line2d_5">
      <g>
       <use xlink:href="#ma531c63532" x="175.641771" y="220.640389" style="stroke: #000000; stroke-width: 0.8"/>
      </g>
     </g>
     <g id="text_5">
      <!-- zfc_h_meas -->
      <g transform="translate(133.078362 273.90948) rotate(-45) scale(0.1 -0.1)">
       <defs>
        <path id="DejaVuSans-66" d="M 2375 4863 
L 2375 4384 
L 1825 4384 
Q 1516 4384 1395 4259 
Q 1275 4134 1275 3809 
L 1275 3500 
L 2222 3500 
L 2222 3053 
L 1275 3053 
L 1275 0 
L 697 0 
L 697 3053 
L 147 3053 
L 147 3500 
L 697 3500 
L 697 3744 
Q 697 4328 969 4595 
Q 1241 4863 1831 4863 
L 2375 4863 
z
" transform="scale(0.015625)"/>
        <path id="DejaVuSans-63" d="M 3122 3366 
L 3122 2828 
Q 2878 2963 2633 3030 
Q 2388 3097 2138 3097 
Q 1578 3097 1268 2742 
Q 959 2388 959 1747 
Q 959 1106 1268 751 
Q 1578 397 2138 397 
Q 2388 397 2633 464 
Q 2878 531 3122 666 
L 3122 134 
Q 2881 22 2623 -34 
Q 2366 -91 2075 -91 
Q 1284 -91 818 406 
Q 353 903 353 1747 
Q 353 2603 823 3093 
Q 1294 3584 2113 3584 
Q 2378 3584 2631 3529 
Q 2884 3475 3122 3366 
z
" transform="scale(0.015625)"/>
       </defs>
       <use xlink:href="#DejaVuSans-7a"/>
       <use xlink:href="#DejaVuSans-66" transform="translate(52.490234 0)"/>
       <use xlink:href="#DejaVuSans-63" transform="translate(87.695312 0)"/>
       <use xlink:href="#DejaVuSans-5f" transform="translate(142.675781 0)"/>
       <use xlink:href="#DejaVuSans-68" transform="translate(192.675781 0)"/>
       <use xlink:href="#DejaVuSans-5f" transform="translate(256.054688 0)"/>
       <use xlink:href="#DejaVuSans-6d" transform="translate(306.054688 0)"/>
       <use xlink:href="#DejaVuSans-65" transform="translate(403.466797 0)"/>
       <use xlink:href="#DejaVuSans-61" transform="translate(464.990234 0)"/>
       <use xlink:href="#DejaVuSans-73" transform="translate(526.269531 0)"/>
      </g>
     </g>
    </g>
    <g id="xtick_6">
     <g id="line2d_6">
      <g>
       <use xlink:href="#ma531c63532" x="203.003731" y="220.640389" style="stroke: #000000; stroke-width: 0.8"/>
      </g>
     </g>
     <g id="text_6">
      <!-- htherm_sar -->
      <g transform="translate(161.120913 273.228889) rotate(-45) scale(0.1 -0.1)">
       <defs>
        <path id="DejaVuSans-74" d="M 1172 4494 
L 1172 3500 
L 2356 3500 
L 2356 3053 
L 1172 3053 
L 1172 1153 
Q 1172 725 1289 603 
Q 1406 481 1766 481 
L 2356 481 
L 2356 0 
L 1766 0 
Q 1100 0 847 248 
Q 594 497 594 1153 
L 594 3053 
L 172 3053 
L 172 3500 
L 594 3500 
L 594 4494 
L 1172 4494 
z
" transform="scale(0.015625)"/>
       </defs>
       <use xlink:href="#DejaVuSans-68"/>
       <use xlink:href="#DejaVuSans-74" transform="translate(63.378906 0)"/>
       <use xlink:href="#DejaVuSans-68" transform="translate(102.587891 0)"/>
       <use xlink:href="#DejaVuSans-65" transform="translate(165.966797 0)"/>
       <use xlink:href="#DejaVuSans-72" transform="translate(227.490234 0)"/>
       <use xlink:href="#DejaVuSans-6d" transform="translate(266.853516 0)"/>
       <use xlink:href="#DejaVuSans-5f" transform="translate(364.265625 0)"/>
       <use xlink:href="#DejaVuSans-73" transform="translate(414.265625 0)"/>
       <use xlink:href="#DejaVuSans-61" transform="translate(466.365234 0)"/>
       <use xlink:href="#DejaVuSans-72" transform="translate(527.644531 0)"/>
      </g>
     </g>
    </g>
    <g id="xtick_7">
     <g id="line2d_7">
      <g>
       <use xlink:href="#ma531c63532" x="230.365692" y="220.640389" style="stroke: #000000; stroke-width: 0.8"/>
      </g>
     </g>
     <g id="text_7">
      <!-- mri_r1 -->
      <g transform="translate(205.998129 255.713633) rotate(-45) scale(0.1 -0.1)">
       <defs>
        <path id="DejaVuSans-31" d="M 794 531 
L 1825 531 
L 1825 4091 
L 703 3866 
L 703 4441 
L 1819 4666 
L 2450 4666 
L 2450 531 
L 3481 531 
L 3481 0 
L 794 0 
L 794 531 
z
" transform="scale(0.015625)"/>
       </defs>
       <use xlink:href="#DejaVuSans-6d"/>
       <use xlink:href="#DejaVuSans-72" transform="translate(97.412109 0)"/>
       <use xlink:href="#DejaVuSans-69" transform="translate(138.525391 0)"/>
       <use xlink:href="#DejaVuSans-5f" transform="translate(166.308594 0)"/>
       <use xlink:href="#DejaVuSans-72" transform="translate(216.308594 0)"/>
       <use xlink:href="#DejaVuSans-31" transform="translate(257.421875 0)"/>
      </g>
     </g>
    </g>
    <g id="xtick_8">
     <g id="line2d_8">
      <g>
       <use xlink:href="#ma531c63532" x="257.727652" y="220.640389" style="stroke: #000000; stroke-width: 0.8"/>
      </g>
     </g>
     <g id="text_8">
      <!-- xrd_scherrer_size -->
      <g transform="translate(194.62942 294.444303) rotate(-45) scale(0.1 -0.1)">
       <use xlink:href="#DejaVuSans-78"/>
       <use xlink:href="#DejaVuSans-72" transform="translate(59.179688 0)"/>
       <use xlink:href="#DejaVuSans-64" transform="translate(98.542969 0)"/>
       <use xlink:href="#DejaVuSans-5f" transform="translate(162.019531 0)"/>
       <use xlink:href="#DejaVuSans-73" transform="translate(212.019531 0)"/>
       <use xlink:href="#DejaVuSans-63" transform="translate(264.119141 0)"/>
       <use xlink:href="#DejaVuSans-68" transform="translate(319.099609 0)"/>
       <use xlink:href="#DejaVuSans-65" transform="translate(382.478516 0)"/>
       <use xlink:href="#DejaVuSans-72" transform="translate(444.001953 0)"/>
       <use xlink:href="#DejaVuSans-72" transform="translate(483.365234 0)"/>
       <use xlink:href="#DejaVuSans-65" transform="translate(522.228516 0)"/>
       <use xlink:href="#DejaVuSans-72" transform="translate(583.751953 0)"/>
       <use xlink:href="#DejaVuSans-5f" transform="translate(624.865234 0)"/>
       <use xlink:href="#DejaVuSans-73" transform="translate(674.865234 0)"/>
       <use xlink:href="#DejaVuSans-69" transform="translate(726.964844 0)"/>
       <use xlink:href="#DejaVuSans-7a" transform="translate(754.748047 0)"/>
       <use xlink:href="#DejaVuSans-65" transform="translate(807.238281 0)"/>
      </g>
     </g>
    </g>
    <g id="xtick_9">
     <g id="line2d_9">
      <g>
       <use xlink:href="#ma531c63532" x="285.089613" y="220.640389" style="stroke: #000000; stroke-width: 0.8"/>
      </g>
     </g>
     <g id="text_9">
      <!-- mri_r2 -->
      <g transform="translate(260.72205 255.713633) rotate(-45) scale(0.1 -0.1)">
       <use xlink:href="#DejaVuSans-6d"/>
       <use xlink:href="#DejaVuSans-72" transform="translate(97.412109 0)"/>
       <use xlink:href="#DejaVuSans-69" transform="translate(138.525391 0)"/>
       <use xlink:href="#DejaVuSans-5f" transform="translate(166.308594 0)"/>
       <use xlink:href="#DejaVuSans-72" transform="translate(216.308594 0)"/>
       <use xlink:href="#DejaVuSans-32" transform="translate(257.421875 0)"/>
      </g>
     </g>
    </g>
    <g id="xtick_10">
     <g id="line2d_10">
      <g>
       <use xlink:href="#ma531c63532" x="312.451573" y="220.640389" style="stroke: #000000; stroke-width: 0.8"/>
      </g>
     </g>
     <g id="text_10">
      <!-- emic_size -->
      <g transform="translate(276.447684 267.349959) rotate(-45) scale(0.1 -0.1)">
       <use xlink:href="#DejaVuSans-65"/>
       <use xlink:href="#DejaVuSans-6d" transform="translate(61.523438 0)"/>
       <use xlink:href="#DejaVuSans-69" transform="translate(158.935547 0)"/>
       <use xlink:href="#DejaVuSans-63" transform="translate(186.71875 0)"/>
       <use xlink:href="#DejaVuSans-5f" transform="translate(241.699219 0)"/>
       <use xlink:href="#DejaVuSans-73" transform="translate(291.699219 0)"/>
       <use xlink:href="#DejaVuSans-69" transform="translate(343.798828 0)"/>
       <use xlink:href="#DejaVuSans-7a" transform="translate(371.582031 0)"/>
       <use xlink:href="#DejaVuSans-65" transform="translate(424.072266 0)"/>
      </g>
     </g>
    </g>
    <g id="xtick_11">
     <g id="line2d_11">
      <g>
       <use xlink:href="#ma531c63532" x="339.813533" y="220.640389" style="stroke: #000000; stroke-width: 0.8"/>
      </g>
     </g>
     <g id="text_11">
      <!-- core_shell_formula -->
      <g transform="translate(272.051712 299.107893) rotate(-45) scale(0.1 -0.1)">
       <use xlink:href="#DejaVuSans-63"/>
       <use xlink:href="#DejaVuSans-6f" transform="translate(54.980469 0)"/>
       <use xlink:href="#DejaVuSans-72" transform="translate(116.162109 0)"/>
       <use xlink:href="#DejaVuSans-65" transform="translate(155.025391 0)"/>
       <use xlink:href="#DejaVuSans-5f" transform="translate(216.548828 0)"/>
       <use xlink:href="#DejaVuSans-73" transform="translate(266.548828 0)"/>
       <use xlink:href="#DejaVuSans-68" transform="translate(318.648438 0)"/>
       <use xlink:href="#DejaVuSans-65" transform="translate(382.027344 0)"/>
       <use xlink:href="#DejaVuSans-6c" transform="translate(443.550781 0)"/>
       <use xlink:href="#DejaVuSans-6c" transform="translate(471.333984 0)"/>
       <use xlink:href="#DejaVuSans-5f" transform="translate(499.117188 0)"/>
       <use xlink:href="#DejaVuSans-66" transform="translate(549.117188 0)"/>
       <use xlink:href="#DejaVuSans-6f" transform="translate(584.322266 0)"/>
       <use xlink:href="#DejaVuSans-72" transform="translate(645.503906 0)"/>
       <use xlink:href="#DejaVuSans-6d" transform="translate(684.867188 0)"/>
       <use xlink:href="#DejaVuSans-75" transform="translate(782.279297 0)"/>
       <use xlink:href="#DejaVuSans-6c" transform="translate(845.658203 0)"/>
       <use xlink:href="#DejaVuSans-61" transform="translate(873.441406 0)"/>
      </g>
     </g>
    </g>
    <g id="xtick_12">
     <g id="line2d_12">
      <g>
       <use xlink:href="#ma531c63532" x="367.175494" y="220.640389" style="stroke: #000000; stroke-width: 0.8"/>
      </g>
     </g>
     <g id="text_12">
      <!-- instrument -->
      <g transform="translate(326.92344 271.794788) rotate(-45) scale(0.1 -0.1)">
       <use xlink:href="#DejaVuSans-69"/>
       <use xlink:href="#DejaVuSans-6e" transform="translate(27.783203 0)"/>
       <use xlink:href="#DejaVuSans-73" transform="translate(91.162109 0)"/>
       <use xlink:href="#DejaVuSans-74" transform="translate(143.261719 0)"/>
       <use xlink:href="#DejaVuSans-72" transform="translate(182.470703 0)"/>
       <use xlink:href="#DejaVuSans-75" transform="translate(223.583984 0)"/>
       <use xlink:href="#DejaVuSans-6d" transform="translate(286.962891 0)"/>
       <use xlink:href="#DejaVuSans-65" transform="translate(384.375 0)"/>
       <use xlink:href="#DejaVuSans-6e" transform="translate(445.898438 0)"/>
       <use xlink:href="#DejaVuSans-74" transform="translate(509.277344 0)"/>
      </g>
     </g>
    </g>
    <g id="xtick_13">
     <g id="line2d_13">
      <g>
       <use xlink:href="#ma531c63532" x="394.537454" y="220.640389" style="stroke: #000000; stroke-width: 0.8"/>
      </g>
     </g>
     <g id="text_13">
      <!-- np_core -->
      <g transform="translate(365.051102 260.63576) rotate(-45) scale(0.1 -0.1)">
       <use xlink:href="#DejaVuSans-6e"/>
       <use xlink:href="#DejaVuSans-70" transform="translate(63.378906 0)"/>
       <use xlink:href="#DejaVuSans-5f" transform="translate(126.855469 0)"/>
       <use xlink:href="#DejaVuSans-63" transform="translate(176.855469 0)"/>
       <use xlink:href="#DejaVuSans-6f" transform="translate(231.835938 0)"/>
       <use xlink:href="#DejaVuSans-72" transform="translate(293.017578 0)"/>
       <use xlink:href="#DejaVuSans-65" transform="translate(331.880859 0)"/>
      </g>
     </g>
    </g>
    <g id="xtick_14">
     <g id="line2d_14">
      <g>
       <use xlink:href="#ma531c63532" x="421.899415" y="220.640389" style="stroke: #000000; stroke-width: 0.8"/>
      </g>
     </g>
     <g id="text_14">
      <!-- np_shell -->
      <g transform="translate(391.281691 261.963794) rotate(-45) scale(0.1 -0.1)">
       <use xlink:href="#DejaVuSans-6e"/>
       <use xlink:href="#DejaVuSans-70" transform="translate(63.378906 0)"/>
       <use xlink:href="#DejaVuSans-5f" transform="translate(126.855469 0)"/>
       <use xlink:href="#DejaVuSans-73" transform="translate(176.855469 0)"/>
       <use xlink:href="#DejaVuSans-68" transform="translate(228.955078 0)"/>
       <use xlink:href="#DejaVuSans-65" transform="translate(292.333984 0)"/>
       <use xlink:href="#DejaVuSans-6c" transform="translate(353.857422 0)"/>
       <use xlink:href="#DejaVuSans-6c" transform="translate(381.640625 0)"/>
      </g>
     </g>
    </g>
    <g id="xtick_15">
     <g id="line2d_15">
      <g>
       <use xlink:href="#ma531c63532" x="449.261375" y="220.640389" style="stroke: #000000; stroke-width: 0.8"/>
      </g>
     </g>
     <g id="text_15">
      <!-- space_group_core -->
      <g transform="translate(383.931338 296.479444) rotate(-45) scale(0.1 -0.1)">
       <defs>
        <path id="DejaVuSans-67" d="M 2906 1791 
Q 2906 2416 2648 2759 
Q 2391 3103 1925 3103 
Q 1463 3103 1205 2759 
Q 947 2416 947 1791 
Q 947 1169 1205 825 
Q 1463 481 1925 481 
Q 2391 481 2648 825 
Q 2906 1169 2906 1791 
z
M 3481 434 
Q 3481 -459 3084 -895 
Q 2688 -1331 1869 -1331 
Q 1566 -1331 1297 -1286 
Q 1028 -1241 775 -1147 
L 775 -588 
Q 1028 -725 1275 -790 
Q 1522 -856 1778 -856 
Q 2344 -856 2625 -561 
Q 2906 -266 2906 331 
L 2906 616 
Q 2728 306 2450 153 
Q 2172 0 1784 0 
Q 1141 0 747 490 
Q 353 981 353 1791 
Q 353 2603 747 3093 
Q 1141 3584 1784 3584 
Q 2172 3584 2450 3431 
Q 2728 3278 2906 2969 
L 2906 3500 
L 3481 3500 
L 3481 434 
z
" transform="scale(0.015625)"/>
       </defs>
       <use xlink:href="#DejaVuSans-73"/>
       <use xlink:href="#DejaVuSans-70" transform="translate(52.099609 0)"/>
       <use xlink:href="#DejaVuSans-61" transform="translate(115.576172 0)"/>
       <use xlink:href="#DejaVuSans-63" transform="translate(176.855469 0)"/>
       <use xlink:href="#DejaVuSans-65" transform="translate(231.835938 0)"/>
       <use xlink:href="#DejaVuSans-5f" transform="translate(293.359375 0)"/>
       <use xlink:href="#DejaVuSans-67" transform="translate(343.359375 0)"/>
       <use xlink:href="#DejaVuSans-72" transform="translate(406.835938 0)"/>
       <use xlink:href="#DejaVuSans-6f" transform="translate(445.699219 0)"/>
       <use xlink:href="#DejaVuSans-75" transform="translate(506.880859 0)"/>
       <use xlink:href="#DejaVuSans-70" transform="translate(570.259766 0)"/>
       <use xlink:href="#DejaVuSans-5f" transform="translate(633.736328 0)"/>
       <use xlink:href="#DejaVuSans-63" transform="translate(683.736328 0)"/>
       <use xlink:href="#DejaVuSans-6f" transform="translate(738.716797 0)"/>
       <use xlink:href="#DejaVuSans-72" transform="translate(799.898438 0)"/>
       <use xlink:href="#DejaVuSans-65" transform="translate(838.761719 0)"/>
      </g>
     </g>
    </g>
    <g id="xtick_16">
     <g id="line2d_16">
      <g>
       <use xlink:href="#ma531c63532" x="476.623336" y="220.640389" style="stroke: #000000; stroke-width: 0.8"/>
      </g>
     </g>
     <g id="text_16">
      <!-- space_group_shell -->
      <g transform="translate(410.161928 297.807479) rotate(-45) scale(0.1 -0.1)">
       <use xlink:href="#DejaVuSans-73"/>
       <use xlink:href="#DejaVuSans-70" transform="translate(52.099609 0)"/>
       <use xlink:href="#DejaVuSans-61" transform="translate(115.576172 0)"/>
       <use xlink:href="#DejaVuSans-63" transform="translate(176.855469 0)"/>
       <use xlink:href="#DejaVuSans-65" transform="translate(231.835938 0)"/>
       <use xlink:href="#DejaVuSans-5f" transform="translate(293.359375 0)"/>
       <use xlink:href="#DejaVuSans-67" transform="translate(343.359375 0)"/>
       <use xlink:href="#DejaVuSans-72" transform="translate(406.835938 0)"/>
       <use xlink:href="#DejaVuSans-6f" transform="translate(445.699219 0)"/>
       <use xlink:href="#DejaVuSans-75" transform="translate(506.880859 0)"/>
       <use xlink:href="#DejaVuSans-70" transform="translate(570.259766 0)"/>
       <use xlink:href="#DejaVuSans-5f" transform="translate(633.736328 0)"/>
       <use xlink:href="#DejaVuSans-73" transform="translate(683.736328 0)"/>
       <use xlink:href="#DejaVuSans-68" transform="translate(735.835938 0)"/>
       <use xlink:href="#DejaVuSans-65" transform="translate(799.214844 0)"/>
       <use xlink:href="#DejaVuSans-6c" transform="translate(860.738281 0)"/>
       <use xlink:href="#DejaVuSans-6c" transform="translate(888.521484 0)"/>
      </g>
     </g>
    </g>
    <g id="xtick_17">
     <g id="line2d_17">
      <g>
       <use xlink:href="#ma531c63532" x="503.985296" y="220.640389" style="stroke: #000000; stroke-width: 0.8"/>
      </g>
     </g>
     <g id="text_17">
      <!-- fc_field_T -->
      <g transform="translate(469.29287 266.038497) rotate(-45) scale(0.1 -0.1)">
       <defs>
        <path id="DejaVuSans-54" d="M -19 4666 
L 3928 4666 
L 3928 4134 
L 2272 4134 
L 2272 0 
L 1638 0 
L 1638 4134 
L -19 4134 
L -19 4666 
z
" transform="scale(0.015625)"/>
       </defs>
       <use xlink:href="#DejaVuSans-66"/>
       <use xlink:href="#DejaVuSans-63" transform="translate(35.205078 0)"/>
       <use xlink:href="#DejaVuSans-5f" transform="translate(90.185547 0)"/>
       <use xlink:href="#DejaVuSans-66" transform="translate(140.185547 0)"/>
       <use xlink:href="#DejaVuSans-69" transform="translate(175.390625 0)"/>
       <use xlink:href="#DejaVuSans-65" transform="translate(203.173828 0)"/>
       <use xlink:href="#DejaVuSans-6c" transform="translate(264.697266 0)"/>
       <use xlink:href="#DejaVuSans-64" transform="translate(292.480469 0)"/>
       <use xlink:href="#DejaVuSans-5f" transform="translate(355.957031 0)"/>
       <use xlink:href="#DejaVuSans-54" transform="translate(405.957031 0)"/>
      </g>
     </g>
    </g>
    <g id="xtick_18">
     <g id="line2d_18">
      <g>
       <use xlink:href="#ma531c63532" x="531.347257" y="220.640389" style="stroke: #000000; stroke-width: 0.8"/>
      </g>
     </g>
     <g id="text_18">
      <!-- squid_temperature -->
      <g transform="translate(462.594381 300.098947) rotate(-45) scale(0.1 -0.1)">
       <use xlink:href="#DejaVuSans-73"/>
       <use xlink:href="#DejaVuSans-71" transform="translate(52.099609 0)"/>
       <use xlink:href="#DejaVuSans-75" transform="translate(115.576172 0)"/>
       <use xlink:href="#DejaVuSans-69" transform="translate(178.955078 0)"/>
       <use xlink:href="#DejaVuSans-64" transform="translate(206.738281 0)"/>
       <use xlink:href="#DejaVuSans-5f" transform="translate(270.214844 0)"/>
       <use xlink:href="#DejaVuSans-74" transform="translate(320.214844 0)"/>
       <use xlink:href="#DejaVuSans-65" transform="translate(359.423828 0)"/>
       <use xlink:href="#DejaVuSans-6d" transform="translate(420.947266 0)"/>
       <use xlink:href="#DejaVuSans-70" transform="translate(518.359375 0)"/>
       <use xlink:href="#DejaVuSans-65" transform="translate(581.835938 0)"/>
       <use xlink:href="#DejaVuSans-72" transform="translate(643.359375 0)"/>
       <use xlink:href="#DejaVuSans-61" transform="translate(684.472656 0)"/>
       <use xlink:href="#DejaVuSans-74" transform="translate(745.751953 0)"/>
       <use xlink:href="#DejaVuSans-75" transform="translate(784.960938 0)"/>
       <use xlink:href="#DejaVuSans-72" transform="translate(848.339844 0)"/>
       <use xlink:href="#DejaVuSans-65" transform="translate(887.203125 0)"/>
      </g>
     </g>
    </g>
    <g id="xtick_19">
     <g id="line2d_19">
      <g>
       <use xlink:href="#ma531c63532" x="558.709217" y="220.640389" style="stroke: #000000; stroke-width: 0.8"/>
      </g>
     </g>
     <g id="text_19">
      <!-- squid_sat_mag -->
      <g transform="translate(504.364747 285.690542) rotate(-45) scale(0.1 -0.1)">
       <use xlink:href="#DejaVuSans-73"/>
       <use xlink:href="#DejaVuSans-71" transform="translate(52.099609 0)"/>
       <use xlink:href="#DejaVuSans-75" transform="translate(115.576172 0)"/>
       <use xlink:href="#DejaVuSans-69" transform="translate(178.955078 0)"/>
       <use xlink:href="#DejaVuSans-64" transform="translate(206.738281 0)"/>
       <use xlink:href="#DejaVuSans-5f" transform="translate(270.214844 0)"/>
       <use xlink:href="#DejaVuSans-73" transform="translate(320.214844 0)"/>
       <use xlink:href="#DejaVuSans-61" transform="translate(372.314453 0)"/>
       <use xlink:href="#DejaVuSans-74" transform="translate(433.59375 0)"/>
       <use xlink:href="#DejaVuSans-5f" transform="translate(472.802734 0)"/>
       <use xlink:href="#DejaVuSans-6d" transform="translate(522.802734 0)"/>
       <use xlink:href="#DejaVuSans-61" transform="translate(620.214844 0)"/>
       <use xlink:href="#DejaVuSans-67" transform="translate(681.494141 0)"/>
      </g>
     </g>
    </g>
    <g id="xtick_20">
     <g id="line2d_20">
      <g>
       <use xlink:href="#ma531c63532" x="586.071178" y="220.640389" style="stroke: #000000; stroke-width: 0.8"/>
      </g>
     </g>
     <g id="text_20">
      <!-- coercivity -->
      <g transform="translate(550.328035 267.285878) rotate(-45) scale(0.1 -0.1)">
       <defs>
        <path id="DejaVuSans-76" d="M 191 3500 
L 800 3500 
L 1894 563 
L 2988 3500 
L 3597 3500 
L 2284 0 
L 1503 0 
L 191 3500 
z
" transform="scale(0.015625)"/>
       </defs>
       <use xlink:href="#DejaVuSans-63"/>
       <use xlink:href="#DejaVuSans-6f" transform="translate(54.980469 0)"/>
       <use xlink:href="#DejaVuSans-65" transform="translate(116.162109 0)"/>
       <use xlink:href="#DejaVuSans-72" transform="translate(177.685547 0)"/>
       <use xlink:href="#DejaVuSans-63" transform="translate(216.548828 0)"/>
       <use xlink:href="#DejaVuSans-69" transform="translate(271.529297 0)"/>
       <use xlink:href="#DejaVuSans-76" transform="translate(299.3125 0)"/>
       <use xlink:href="#DejaVuSans-69" transform="translate(358.492188 0)"/>
       <use xlink:href="#DejaVuSans-74" transform="translate(386.275391 0)"/>
       <use xlink:href="#DejaVuSans-79" transform="translate(425.484375 0)"/>
      </g>
     </g>
    </g>
    <g id="xtick_21">
     <g id="line2d_21">
      <g>
       <use xlink:href="#ma531c63532" x="613.433138" y="220.640389" style="stroke: #000000; stroke-width: 0.8"/>
      </g>
     </g>
     <g id="text_21">
      <!-- squid_rem_mag -->
      <g transform="translate(555.891219 288.88799) rotate(-45) scale(0.1 -0.1)">
       <use xlink:href="#DejaVuSans-73"/>
       <use xlink:href="#DejaVuSans-71" transform="translate(52.099609 0)"/>
       <use xlink:href="#DejaVuSans-75" transform="translate(115.576172 0)"/>
       <use xlink:href="#DejaVuSans-69" transform="translate(178.955078 0)"/>
       <use xlink:href="#DejaVuSans-64" transform="translate(206.738281 0)"/>
       <use xlink:href="#DejaVuSans-5f" transform="translate(270.214844 0)"/>
       <use xlink:href="#DejaVuSans-72" transform="translate(320.214844 0)"/>
       <use xlink:href="#DejaVuSans-65" transform="translate(359.078125 0)"/>
       <use xlink:href="#DejaVuSans-6d" transform="translate(420.601562 0)"/>
       <use xlink:href="#DejaVuSans-5f" transform="translate(518.013672 0)"/>
       <use xlink:href="#DejaVuSans-6d" transform="translate(568.013672 0)"/>
       <use xlink:href="#DejaVuSans-61" transform="translate(665.425781 0)"/>
       <use xlink:href="#DejaVuSans-67" transform="translate(726.705078 0)"/>
      </g>
     </g>
    </g>
    <g id="xtick_22">
     <g id="line2d_22">
      <g>
       <use xlink:href="#ma531c63532" x="640.795099" y="220.640389" style="stroke: #000000; stroke-width: 0.8"/>
      </g>
     </g>
     <g id="text_22">
      <!-- exchange_bias_shift_Oe -->
      <g transform="translate(554.554588 317.586582) rotate(-45) scale(0.1 -0.1)">
       <defs>
        <path id="DejaVuSans-62" d="M 3116 1747 
Q 3116 2381 2855 2742 
Q 2594 3103 2138 3103 
Q 1681 3103 1420 2742 
Q 1159 2381 1159 1747 
Q 1159 1113 1420 752 
Q 1681 391 2138 391 
Q 2594 391 2855 752 
Q 3116 1113 3116 1747 
z
M 1159 2969 
Q 1341 3281 1617 3432 
Q 1894 3584 2278 3584 
Q 2916 3584 3314 3078 
Q 3713 2572 3713 1747 
Q 3713 922 3314 415 
Q 2916 -91 2278 -91 
Q 1894 -91 1617 61 
Q 1341 213 1159 525 
L 1159 0 
L 581 0 
L 581 4863 
L 1159 4863 
L 1159 2969 
z
" transform="scale(0.015625)"/>
        <path id="DejaVuSans-4f" d="M 2522 4238 
Q 1834 4238 1429 3725 
Q 1025 3213 1025 2328 
Q 1025 1447 1429 934 
Q 1834 422 2522 422 
Q 3209 422 3611 934 
Q 4013 1447 4013 2328 
Q 4013 3213 3611 3725 
Q 3209 4238 2522 4238 
z
M 2522 4750 
Q 3503 4750 4090 4092 
Q 4678 3434 4678 2328 
Q 4678 1225 4090 567 
Q 3503 -91 2522 -91 
Q 1538 -91 948 565 
Q 359 1222 359 2328 
Q 359 3434 948 4092 
Q 1538 4750 2522 4750 
z
" transform="scale(0.015625)"/>
       </defs>
       <use xlink:href="#DejaVuSans-65"/>
       <use xlink:href="#DejaVuSans-78" transform="translate(59.773438 0)"/>
       <use xlink:href="#DejaVuSans-63" transform="translate(117.203125 0)"/>
       <use xlink:href="#DejaVuSans-68" transform="translate(172.183594 0)"/>
       <use xlink:href="#DejaVuSans-61" transform="translate(235.5625 0)"/>
       <use xlink:href="#DejaVuSans-6e" transform="translate(296.841797 0)"/>
       <use xlink:href="#DejaVuSans-67" transform="translate(360.220703 0)"/>
       <use xlink:href="#DejaVuSans-65" transform="translate(423.697266 0)"/>
       <use xlink:href="#DejaVuSans-5f" transform="translate(485.220703 0)"/>
       <use xlink:href="#DejaVuSans-62" transform="translate(535.220703 0)"/>
       <use xlink:href="#DejaVuSans-69" transform="translate(598.697266 0)"/>
       <use xlink:href="#DejaVuSans-61" transform="translate(626.480469 0)"/>
       <use xlink:href="#DejaVuSans-73" transform="translate(687.759766 0)"/>
       <use xlink:href="#DejaVuSans-5f" transform="translate(739.859375 0)"/>
       <use xlink:href="#DejaVuSans-73" transform="translate(789.859375 0)"/>
       <use xlink:href="#DejaVuSans-68" transform="translate(841.958984 0)"/>
       <use xlink:href="#DejaVuSans-69" transform="translate(905.337891 0)"/>
       <use xlink:href="#DejaVuSans-66" transform="translate(933.121094 0)"/>
       <use xlink:href="#DejaVuSans-74" transform="translate(966.576172 0)"/>
       <use xlink:href="#DejaVuSans-5f" transform="translate(1005.785156 0)"/>
       <use xlink:href="#DejaVuSans-4f" transform="translate(1055.785156 0)"/>
       <use xlink:href="#DejaVuSans-65" transform="translate(1134.496094 0)"/>
      </g>
     </g>
    </g>
    <g id="xtick_23">
     <g id="line2d_23">
      <g>
       <use xlink:href="#ma531c63532" x="668.157059" y="220.640389" style="stroke: #000000; stroke-width: 0.8"/>
      </g>
     </g>
     <g id="text_23">
      <!-- vertical_loop_shift_M_vsl_emu_g -->
      <g transform="translate(552.39484 347.10829) rotate(-45) scale(0.1 -0.1)">
       <defs>
        <path id="DejaVuSans-4d" d="M 628 4666 
L 1569 4666 
L 2759 1491 
L 3956 4666 
L 4897 4666 
L 4897 0 
L 4281 0 
L 4281 4097 
L 3078 897 
L 2444 897 
L 1241 4097 
L 1241 0 
L 628 0 
L 628 4666 
z
" transform="scale(0.015625)"/>
       </defs>
       <use xlink:href="#DejaVuSans-76"/>
       <use xlink:href="#DejaVuSans-65" transform="translate(59.179688 0)"/>
       <use xlink:href="#DejaVuSans-72" transform="translate(120.703125 0)"/>
       <use xlink:href="#DejaVuSans-74" transform="translate(161.816406 0)"/>
       <use xlink:href="#DejaVuSans-69" transform="translate(201.025391 0)"/>
       <use xlink:href="#DejaVuSans-63" transform="translate(228.808594 0)"/>
       <use xlink:href="#DejaVuSans-61" transform="translate(283.789062 0)"/>
       <use xlink:href="#DejaVuSans-6c" transform="translate(345.068359 0)"/>
       <use xlink:href="#DejaVuSans-5f" transform="translate(372.851562 0)"/>
       <use xlink:href="#DejaVuSans-6c" transform="translate(422.851562 0)"/>
       <use xlink:href="#DejaVuSans-6f" transform="translate(450.634766 0)"/>
       <use xlink:href="#DejaVuSans-6f" transform="translate(511.816406 0)"/>
       <use xlink:href="#DejaVuSans-70" transform="translate(572.998047 0)"/>
       <use xlink:href="#DejaVuSans-5f" transform="translate(636.474609 0)"/>
       <use xlink:href="#DejaVuSans-73" transform="translate(686.474609 0)"/>
       <use xlink:href="#DejaVuSans-68" transform="translate(738.574219 0)"/>
       <use xlink:href="#DejaVuSans-69" transform="translate(801.953125 0)"/>
       <use xlink:href="#DejaVuSans-66" transform="translate(829.736328 0)"/>
       <use xlink:href="#DejaVuSans-74" transform="translate(863.191406 0)"/>
       <use xlink:href="#DejaVuSans-5f" transform="translate(902.400391 0)"/>
       <use xlink:href="#DejaVuSans-4d" transform="translate(952.400391 0)"/>
       <use xlink:href="#DejaVuSans-5f" transform="translate(1038.679688 0)"/>
       <use xlink:href="#DejaVuSans-76" transform="translate(1088.679688 0)"/>
       <use xlink:href="#DejaVuSans-73" transform="translate(1147.859375 0)"/>
       <use xlink:href="#DejaVuSans-6c" transform="translate(1199.958984 0)"/>
       <use xlink:href="#DejaVuSans-5f" transform="translate(1227.742188 0)"/>
       <use xlink:href="#DejaVuSans-65" transform="translate(1277.742188 0)"/>
       <use xlink:href="#DejaVuSans-6d" transform="translate(1339.265625 0)"/>
       <use xlink:href="#DejaVuSans-75" transform="translate(1436.677734 0)"/>
       <use xlink:href="#DejaVuSans-5f" transform="translate(1500.056641 0)"/>
       <use xlink:href="#DejaVuSans-67" transform="translate(1550.056641 0)"/>
      </g>
     </g>
    </g>
    <g id="xtick_24">
     <g id="line2d_24">
      <g>
       <use xlink:href="#ma531c63532" x="695.51902" y="220.640389" style="stroke: #000000; stroke-width: 0.8"/>
      </g>
     </g>
     <g id="text_24">
      <!-- hc_kOe -->
      <g transform="translate(667.935226 258.929864) rotate(-45) scale(0.1 -0.1)">
       <defs>
        <path id="DejaVuSans-6b" d="M 581 4863 
L 1159 4863 
L 1159 1991 
L 2875 3500 
L 3609 3500 
L 1753 1863 
L 3688 0 
L 2938 0 
L 1159 1709 
L 1159 0 
L 581 0 
L 581 4863 
z
" transform="scale(0.015625)"/>
       </defs>
       <use xlink:href="#DejaVuSans-68"/>
       <use xlink:href="#DejaVuSans-63" transform="translate(63.378906 0)"/>
       <use xlink:href="#DejaVuSans-5f" transform="translate(118.359375 0)"/>
       <use xlink:href="#DejaVuSans-6b" transform="translate(168.359375 0)"/>
       <use xlink:href="#DejaVuSans-4f" transform="translate(226.269531 0)"/>
       <use xlink:href="#DejaVuSans-65" transform="translate(304.980469 0)"/>
      </g>
     </g>
    </g>
   </g>
   <g id="matplotlib.axis_2">
    <g id="ytick_1">
     <g id="line2d_25">
      <defs>
       <path id="m62c9e5aa57" d="M 0 0 
L -3.5 0 
" style="stroke: #000000; stroke-width: 0.8"/>
      </defs>
      <g>
       <use xlink:href="#m62c9e5aa57" x="52.512948" y="220.640389" style="stroke: #000000; stroke-width: 0.8"/>
      </g>
     </g>
     <g id="text_25">
      <!-- 0.0 -->
      <g transform="translate(29.609823 224.439608) scale(0.1 -0.1)">
       <defs>
        <path id="DejaVuSans-30" d="M 2034 4250 
Q 1547 4250 1301 3770 
Q 1056 3291 1056 2328 
Q 1056 1369 1301 889 
Q 1547 409 2034 409 
Q 2525 409 2770 889 
Q 3016 1369 3016 2328 
Q 3016 3291 2770 3770 
Q 2525 4250 2034 4250 
z
M 2034 4750 
Q 2819 4750 3233 4129 
Q 3647 3509 3647 2328 
Q 3647 1150 3233 529 
Q 2819 -91 2034 -91 
Q 1250 -91 836 529 
Q 422 1150 422 2328 
Q 422 3509 836 4129 
Q 1250 4750 2034 4750 
z
" transform="scale(0.015625)"/>
        <path id="DejaVuSans-2e" d="M 684 794 
L 1344 794 
L 1344 0 
L 684 0 
L 684 794 
z
" transform="scale(0.015625)"/>
       </defs>
       <use xlink:href="#DejaVuSans-30"/>
       <use xlink:href="#DejaVuSans-2e" transform="translate(63.623047 0)"/>
       <use xlink:href="#DejaVuSans-30" transform="translate(95.410156 0)"/>
      </g>
     </g>
    </g>
    <g id="ytick_2">
     <g id="line2d_26">
      <g>
       <use xlink:href="#m62c9e5aa57" x="52.512948" y="183.733649" style="stroke: #000000; stroke-width: 0.8"/>
      </g>
     </g>
     <g id="text_26">
      <!-- 0.2 -->
      <g transform="translate(29.609823 187.532867) scale(0.1 -0.1)">
       <use xlink:href="#DejaVuSans-30"/>
       <use xlink:href="#DejaVuSans-2e" transform="translate(63.623047 0)"/>
       <use xlink:href="#DejaVuSans-32" transform="translate(95.410156 0)"/>
      </g>
     </g>
    </g>
    <g id="ytick_3">
     <g id="line2d_27">
      <g>
       <use xlink:href="#m62c9e5aa57" x="52.512948" y="146.826908" style="stroke: #000000; stroke-width: 0.8"/>
      </g>
     </g>
     <g id="text_27">
      <!-- 0.4 -->
      <g transform="translate(29.609823 150.626126) scale(0.1 -0.1)">
       <defs>
        <path id="DejaVuSans-34" d="M 2419 4116 
L 825 1625 
L 2419 1625 
L 2419 4116 
z
M 2253 4666 
L 3047 4666 
L 3047 1625 
L 3713 1625 
L 3713 1100 
L 3047 1100 
L 3047 0 
L 2419 0 
L 2419 1100 
L 313 1100 
L 313 1709 
L 2253 4666 
z
" transform="scale(0.015625)"/>
       </defs>
       <use xlink:href="#DejaVuSans-30"/>
       <use xlink:href="#DejaVuSans-2e" transform="translate(63.623047 0)"/>
       <use xlink:href="#DejaVuSans-34" transform="translate(95.410156 0)"/>
      </g>
     </g>
    </g>
    <g id="ytick_4">
     <g id="line2d_28">
      <g>
       <use xlink:href="#m62c9e5aa57" x="52.512948" y="109.920167" style="stroke: #000000; stroke-width: 0.8"/>
      </g>
     </g>
     <g id="text_28">
      <!-- 0.6 -->
      <g transform="translate(29.609823 113.719386) scale(0.1 -0.1)">
       <defs>
        <path id="DejaVuSans-36" d="M 2113 2584 
Q 1688 2584 1439 2293 
Q 1191 2003 1191 1497 
Q 1191 994 1439 701 
Q 1688 409 2113 409 
Q 2538 409 2786 701 
Q 3034 994 3034 1497 
Q 3034 2003 2786 2293 
Q 2538 2584 2113 2584 
z
M 3366 4563 
L 3366 3988 
Q 3128 4100 2886 4159 
Q 2644 4219 2406 4219 
Q 1781 4219 1451 3797 
Q 1122 3375 1075 2522 
Q 1259 2794 1537 2939 
Q 1816 3084 2150 3084 
Q 2853 3084 3261 2657 
Q 3669 2231 3669 1497 
Q 3669 778 3244 343 
Q 2819 -91 2113 -91 
Q 1303 -91 875 529 
Q 447 1150 447 2328 
Q 447 3434 972 4092 
Q 1497 4750 2381 4750 
Q 2619 4750 2861 4703 
Q 3103 4656 3366 4563 
z
" transform="scale(0.015625)"/>
       </defs>
       <use xlink:href="#DejaVuSans-30"/>
       <use xlink:href="#DejaVuSans-2e" transform="translate(63.623047 0)"/>
       <use xlink:href="#DejaVuSans-36" transform="translate(95.410156 0)"/>
      </g>
     </g>
    </g>
    <g id="ytick_5">
     <g id="line2d_29">
      <g>
       <use xlink:href="#m62c9e5aa57" x="52.512948" y="73.013426" style="stroke: #000000; stroke-width: 0.8"/>
      </g>
     </g>
     <g id="text_29">
      <!-- 0.8 -->
      <g transform="translate(29.609823 76.812645) scale(0.1 -0.1)">
       <defs>
        <path id="DejaVuSans-38" d="M 2034 2216 
Q 1584 2216 1326 1975 
Q 1069 1734 1069 1313 
Q 1069 891 1326 650 
Q 1584 409 2034 409 
Q 2484 409 2743 651 
Q 3003 894 3003 1313 
Q 3003 1734 2745 1975 
Q 2488 2216 2034 2216 
z
M 1403 2484 
Q 997 2584 770 2862 
Q 544 3141 544 3541 
Q 544 4100 942 4425 
Q 1341 4750 2034 4750 
Q 2731 4750 3128 4425 
Q 3525 4100 3525 3541 
Q 3525 3141 3298 2862 
Q 3072 2584 2669 2484 
Q 3125 2378 3379 2068 
Q 3634 1759 3634 1313 
Q 3634 634 3220 271 
Q 2806 -91 2034 -91 
Q 1263 -91 848 271 
Q 434 634 434 1313 
Q 434 1759 690 2068 
Q 947 2378 1403 2484 
z
M 1172 3481 
Q 1172 3119 1398 2916 
Q 1625 2713 2034 2713 
Q 2441 2713 2670 2916 
Q 2900 3119 2900 3481 
Q 2900 3844 2670 4047 
Q 2441 4250 2034 4250 
Q 1625 4250 1398 4047 
Q 1172 3844 1172 3481 
z
" transform="scale(0.015625)"/>
       </defs>
       <use xlink:href="#DejaVuSans-30"/>
       <use xlink:href="#DejaVuSans-2e" transform="translate(63.623047 0)"/>
       <use xlink:href="#DejaVuSans-38" transform="translate(95.410156 0)"/>
      </g>
     </g>
    </g>
    <g id="ytick_6">
     <g id="line2d_30">
      <g>
       <use xlink:href="#m62c9e5aa57" x="52.512948" y="36.106685" style="stroke: #000000; stroke-width: 0.8"/>
      </g>
     </g>
     <g id="text_30">
      <!-- 1.0 -->
      <g transform="translate(29.609823 39.905904) scale(0.1 -0.1)">
       <use xlink:href="#DejaVuSans-31"/>
       <use xlink:href="#DejaVuSans-2e" transform="translate(63.623047 0)"/>
       <use xlink:href="#DejaVuSans-30" transform="translate(95.410156 0)"/>
      </g>
     </g>
    </g>
    <g id="text_31">
     <!-- Corrected Cells -->
     <g transform="translate(23.530136 161.798476) rotate(-90) scale(0.1 -0.1)">
      <defs>
       <path id="DejaVuSans-43" d="M 4122 4306 
L 4122 3641 
Q 3803 3938 3442 4084 
Q 3081 4231 2675 4231 
Q 1875 4231 1450 3742 
Q 1025 3253 1025 2328 
Q 1025 1406 1450 917 
Q 1875 428 2675 428 
Q 3081 428 3442 575 
Q 3803 722 4122 1019 
L 4122 359 
Q 3791 134 3420 21 
Q 3050 -91 2638 -91 
Q 1578 -91 968 557 
Q 359 1206 359 2328 
Q 359 3453 968 4101 
Q 1578 4750 2638 4750 
Q 3056 4750 3426 4639 
Q 3797 4528 4122 4306 
z
" transform="scale(0.015625)"/>
       <path id="DejaVuSans-20" transform="scale(0.015625)"/>
      </defs>
      <use xlink:href="#DejaVuSans-43"/>
      <use xlink:href="#DejaVuSans-6f" transform="translate(69.824219 0)"/>
      <use xlink:href="#DejaVuSans-72" transform="translate(131.005859 0)"/>
      <use xlink:href="#DejaVuSans-72" transform="translate(170.369141 0)"/>
      <use xlink:href="#DejaVuSans-65" transform="translate(209.232422 0)"/>
      <use xlink:href="#DejaVuSans-63" transform="translate(270.755859 0)"/>
      <use xlink:href="#DejaVuSans-74" transform="translate(325.736328 0)"/>
      <use xlink:href="#DejaVuSans-65" transform="translate(364.945312 0)"/>
      <use xlink:href="#DejaVuSans-64" transform="translate(426.46875 0)"/>
      <use xlink:href="#DejaVuSans-20" transform="translate(489.945312 0)"/>
      <use xlink:href="#DejaVuSans-43" transform="translate(521.732422 0)"/>
      <use xlink:href="#DejaVuSans-65" transform="translate(591.556641 0)"/>
      <use xlink:href="#DejaVuSans-6c" transform="translate(653.080078 0)"/>
      <use xlink:href="#DejaVuSans-6c" transform="translate(680.863281 0)"/>
      <use xlink:href="#DejaVuSans-73" transform="translate(708.646484 0)"/>
     </g>
    </g>
   </g>
   <g id="patch_27">
    <path d="M 52.512948 220.640389 
L 52.512948 26.88 
" style="fill: none; stroke: #000000; stroke-width: 0.8; stroke-linejoin: miter; stroke-linecap: square"/>
   </g>
   <g id="patch_28">
    <path d="M 709.2 220.640389 
L 709.2 26.88 
" style="fill: none; stroke: #000000; stroke-width: 0.8; stroke-linejoin: miter; stroke-linecap: square"/>
   </g>
   <g id="patch_29">
    <path d="M 52.512948 220.640389 
L 709.2 220.640389 
" style="fill: none; stroke: #000000; stroke-width: 0.8; stroke-linejoin: miter; stroke-linecap: square"/>
   </g>
   <g id="patch_30">
    <path d="M 52.512948 26.88 
L 709.2 26.88 
" style="fill: none; stroke: #000000; stroke-width: 0.8; stroke-linejoin: miter; stroke-linecap: square"/>
   </g>
   <g id="text_32">
    <!-- Nanomag: Total Corrections per Column -->
    <g transform="translate(261.118037 20.88) scale(0.12 -0.12)">
     <defs>
      <path id="DejaVuSans-4e" d="M 628 4666 
L 1478 4666 
L 3547 763 
L 3547 4666 
L 4159 4666 
L 4159 0 
L 3309 0 
L 1241 3903 
L 1241 0 
L 628 0 
L 628 4666 
z
" transform="scale(0.015625)"/>
      <path id="DejaVuSans-3a" d="M 750 794 
L 1409 794 
L 1409 0 
L 750 0 
L 750 794 
z
M 750 3309 
L 1409 3309 
L 1409 2516 
L 750 2516 
L 750 3309 
z
" transform="scale(0.015625)"/>
     </defs>
     <use xlink:href="#DejaVuSans-4e"/>
     <use xlink:href="#DejaVuSans-61" transform="translate(74.804688 0)"/>
     <use xlink:href="#DejaVuSans-6e" transform="translate(136.083984 0)"/>
     <use xlink:href="#DejaVuSans-6f" transform="translate(199.462891 0)"/>
     <use xlink:href="#DejaVuSans-6d" transform="translate(260.644531 0)"/>
     <use xlink:href="#DejaVuSans-61" transform="translate(358.056641 0)"/>
     <use xlink:href="#DejaVuSans-67" transform="translate(419.335938 0)"/>
     <use xlink:href="#DejaVuSans-3a" transform="translate(482.8125 0)"/>
     <use xlink:href="#DejaVuSans-20" transform="translate(516.503906 0)"/>
     <use xlink:href="#DejaVuSans-54" transform="translate(548.291016 0)"/>
     <use xlink:href="#DejaVuSans-6f" transform="translate(592.375 0)"/>
     <use xlink:href="#DejaVuSans-74" transform="translate(653.556641 0)"/>
     <use xlink:href="#DejaVuSans-61" transform="translate(692.765625 0)"/>
     <use xlink:href="#DejaVuSans-6c" transform="translate(754.044922 0)"/>
     <use xlink:href="#DejaVuSans-20" transform="translate(781.828125 0)"/>
     <use xlink:href="#DejaVuSans-43" transform="translate(813.615234 0)"/>
     <use xlink:href="#DejaVuSans-6f" transform="translate(883.439453 0)"/>
     <use xlink:href="#DejaVuSans-72" transform="translate(944.621094 0)"/>
     <use xlink:href="#DejaVuSans-72" transform="translate(983.984375 0)"/>
     <use xlink:href="#DejaVuSans-65" transform="translate(1022.847656 0)"/>
     <use xlink:href="#DejaVuSans-63" transform="translate(1084.371094 0)"/>
     <use xlink:href="#DejaVuSans-74" transform="translate(1139.351562 0)"/>
     <use xlink:href="#DejaVuSans-69" transform="translate(1178.560547 0)"/>
     <use xlink:href="#DejaVuSans-6f" transform="translate(1206.34375 0)"/>
     <use xlink:href="#DejaVuSans-6e" transform="translate(1267.525391 0)"/>
     <use xlink:href="#DejaVuSans-73" transform="translate(1330.904297 0)"/>
     <use xlink:href="#DejaVuSans-20" transform="translate(1383.003906 0)"/>
     <use xlink:href="#DejaVuSans-70" transform="translate(1414.791016 0)"/>
     <use xlink:href="#DejaVuSans-65" transform="translate(1478.267578 0)"/>
     <use xlink:href="#DejaVuSans-72" transform="translate(1539.791016 0)"/>
     <use xlink:href="#DejaVuSans-20" transform="translate(1580.904297 0)"/>
     <use xlink:href="#DejaVuSans-43" transform="translate(1612.691406 0)"/>
     <use xlink:href="#DejaVuSans-6f" transform="translate(1682.515625 0)"/>
     <use xlink:href="#DejaVuSans-6c" transform="translate(1743.697266 0)"/>
     <use xlink:href="#DejaVuSans-75" transform="translate(1771.480469 0)"/>
     <use xlink:href="#DejaVuSans-6d" transform="translate(1834.859375 0)"/>
     <use xlink:href="#DejaVuSans-6e" transform="translate(1932.271484 0)"/>
    </g>
   </g>
   <g id="legend_1">
    <g id="patch_31">
     <path d="M 621.203125 49.558125 
L 702.2 49.558125 
Q 704.2 49.558125 704.2 47.558125 
L 704.2 33.88 
Q 704.2 31.88 702.2 31.88 
L 621.203125 31.88 
Q 619.203125 31.88 619.203125 33.88 
L 619.203125 47.558125 
Q 619.203125 49.558125 621.203125 49.558125 
z
" style="fill: #ffffff; opacity: 0.8; stroke: #cccccc; stroke-linejoin: miter"/>
    </g>
    <g id="patch_32">
     <path d="M 623.203125 43.478438 
L 643.203125 43.478438 
L 643.203125 36.478438 
L 623.203125 36.478438 
z
" style="fill: #90caf9"/>
    </g>
    <g id="text_33">
     <!-- Corrected -->
     <g transform="translate(651.203125 43.478438) scale(0.1 -0.1)">
      <use xlink:href="#DejaVuSans-43"/>
      <use xlink:href="#DejaVuSans-6f" transform="translate(69.824219 0)"/>
      <use xlink:href="#DejaVuSans-72" transform="translate(131.005859 0)"/>
      <use xlink:href="#DejaVuSans-72" transform="translate(170.369141 0)"/>
      <use xlink:href="#DejaVuSans-65" transform="translate(209.232422 0)"/>
      <use xlink:href="#DejaVuSans-63" transform="translate(270.755859 0)"/>
      <use xlink:href="#DejaVuSans-74" transform="translate(325.736328 0)"/>
      <use xlink:href="#DejaVuSans-65" transform="translate(364.945312 0)"/>
      <use xlink:href="#DejaVuSans-64" transform="translate(426.46875 0)"/>
     </g>
    </g>
   </g>
  </g>
 </g>
 <defs>
  <clipPath id="p1179e106df">
   <rect x="52.512948" y="26.88" width="656.687052" height="193.760389"/>
  </clipPath>
 </defs>
</svg>
